<svg width="12" height="13" viewBox="0 0 12 13" fill="none" xmlns="http://www.w3.org/2000/svg">
<path d="M11.4707 2.61266C11.389 2.53194 11.2909 2.46782 11.1822 2.42421C11.0735 2.38059 10.9565 2.3584 10.8384 2.35898H9.93274V1.71766C9.93482 1.577 9.90643 1.43744 9.84934 1.30758C9.79225 1.17771 9.70767 1.0603 9.60081 0.962588C9.49754 0.861539 9.37352 0.781587 9.23637 0.727661C9.09922 0.673734 8.95186 0.646976 8.80338 0.649036H8.3521C8.20356 0.647073 8.05617 0.673949 7.91902 0.728005C7.78187 0.782061 7.65787 0.862152 7.55467 0.963336C7.44777 1.06102 7.36317 1.17843 7.30607 1.3083C7.24898 1.43817 7.22062 1.57775 7.22274 1.7184V2.35972H4.51274V1.71766C4.51481 1.577 4.48643 1.43744 4.42934 1.30758C4.37225 1.17771 4.28766 1.0603 4.1808 0.962588C4.07763 0.861631 3.95373 0.781733 3.81672 0.72781C3.67972 0.673887 3.53251 0.647079 3.38416 0.649036H2.93289C2.78434 0.647073 2.63695 0.673949 2.4998 0.728005C2.36265 0.782061 2.23865 0.862152 2.13545 0.963336C2.02859 1.06105 1.94401 1.17846 1.88692 1.30833C1.82983 1.43819 1.80145 1.57775 1.80352 1.7184V2.35972H0.900184C0.782128 2.35914 0.665186 2.38134 0.556485 2.42495C0.447783 2.46857 0.349602 2.53269 0.267929 2.61341C0.182682 2.69074 0.114961 2.78371 0.0688993 2.88663C0.0228373 2.98956 -0.000601975 3.10029 1.05193e-05 3.21207V11.7663C0.00305796 11.9918 0.0987552 12.2073 0.266805 12.3671C0.434854 12.5269 0.662039 12.6185 0.900184 12.6224H10.8353C11.0739 12.6193 11.3017 12.5281 11.4704 12.3684C11.6391 12.2087 11.7354 11.9929 11.7386 11.767V3.21432C11.7397 3.10203 11.7164 2.99073 11.6704 2.88726C11.6243 2.78379 11.5563 2.69034 11.4707 2.61266ZM2.93526 11.7663H0.900184V9.8423H2.9321L2.93526 11.7663ZM2.93526 9.41426H0.900184V7.27627H2.9321L2.93526 9.41426ZM2.93526 6.84822H0.900184V4.92426H2.9321L2.93526 6.84822ZM2.77719 3.79128C2.75581 3.77199 2.73882 3.74877 2.72726 3.72303C2.71571 3.69729 2.70984 3.66958 2.71002 3.64162V1.71766C2.71083 1.66113 2.73491 1.60714 2.77712 1.56717C2.81934 1.5272 2.87635 1.50441 2.93605 1.50363H3.38416C3.44385 1.50441 3.50087 1.5272 3.54308 1.56717C3.5853 1.60714 3.60937 1.66113 3.61019 1.71766V3.64237C3.60937 3.69889 3.5853 3.75288 3.54308 3.79285C3.50087 3.83282 3.44385 3.85561 3.38416 3.85639H2.93289C2.90304 3.85662 2.87345 3.85102 2.84599 3.83995C2.81852 3.82888 2.79376 3.81257 2.77324 3.79203L2.77719 3.79128ZM5.64526 11.7655H3.38416V9.8423H5.6421L5.64526 11.7655ZM5.64526 9.41351H3.38416V7.27627H5.6421L5.64526 9.41351ZM5.64526 6.84747H3.38416V4.92426H5.6421L5.64526 6.84747ZM8.35527 11.7648H6.09337V9.8423H8.35131L8.35527 11.7648ZM8.35527 9.41276H6.09337V7.27627H8.35131L8.35527 9.41276ZM8.35527 6.84673H6.09337V4.92426H8.35131L8.35527 6.84673ZM8.1972 3.78979C8.17543 3.77105 8.15789 3.74833 8.14566 3.72299C8.13344 3.69765 8.12677 3.67022 8.12607 3.64237V1.71766C8.12669 1.66107 8.1507 1.60698 8.19296 1.56696C8.23521 1.52695 8.29235 1.50422 8.3521 1.50363H8.80338C8.86313 1.50422 8.92027 1.52695 8.96252 1.56696C9.00478 1.60698 9.02879 1.66107 9.02941 1.71766V3.64237C9.02879 3.69895 9.00478 3.75305 8.96252 3.79306C8.92027 3.83307 8.86313 3.8558 8.80338 3.85639H8.3521C8.32225 3.85666 8.29265 3.85109 8.26518 3.84001C8.2377 3.82894 8.21295 3.8126 8.19246 3.79203L8.1972 3.78979ZM10.84 11.764H8.80338V9.8423H10.8353L10.84 11.764ZM10.84 9.41201H8.80338V7.27627H10.8353L10.84 9.41201ZM10.84 6.84598H8.80338V4.92426H10.8353L10.84 6.84598Z" fill="#333333"/>
</svg>
