<svg width="11" height="13" viewBox="0 0 11 13" fill="none" xmlns="http://www.w3.org/2000/svg">
<path d="M5.48161 0.0561523C7.00223 0.0561523 8.30212 0.474642 9.38127 1.31162C10.4604 2.1486 11 3.16356 11 4.35649C11 4.95296 10.8099 5.64082 10.4298 6.42008C10.0496 7.19933 9.58974 7.92087 9.05017 8.58468C8.51059 9.24849 7.97101 9.87382 7.43144 10.4607C6.89186 11.0475 6.43813 11.5141 6.07023 11.8604L5.48161 12.3511C5.33445 12.2356 5.13824 12.0625 4.89298 11.8316C4.64771 11.6007 4.21237 11.1533 3.58696 10.4895C2.96154 9.82571 2.40357 9.18114 1.91304 8.55582C1.42252 7.93049 0.981048 7.22338 0.588629 6.43451C0.19621 5.64563 0 4.95296 0 4.35649C0 3.16356 0.533445 2.1486 1.60033 1.31162C2.66722 0.474642 3.96098 0.0561523 5.48161 0.0561523ZM5.48161 5.88614C6.02118 5.88614 6.48718 5.73702 6.8796 5.43879C7.27202 5.14056 7.46823 4.77979 7.46823 4.35649C7.46823 3.93319 7.27202 3.57242 6.8796 3.27419C6.48718 2.97596 6.02118 2.82684 5.48161 2.82684C4.94203 2.82684 4.48216 2.97596 4.10201 3.27419C3.72185 3.57242 3.53177 3.93319 3.53177 4.35649C3.53177 4.77979 3.72185 5.14056 4.10201 5.43879C4.48216 5.73702 4.94203 5.88614 5.48161 5.88614Z" fill="#333333"/>
</svg>
